<svg aria-hidden="true" style="position: absolute; width: 0; height: 0; overflow: hidden;" version="1.1" xmlns="http://www.w3.org/2000/svg" xmlns:xlink="http://www.w3.org/1999/xlink">
<defs>
<symbol id="icon-antenna" viewBox="0 0 28 28">
<path fill="#2e2f42" style="fill: var(--color1, #2e2f42)" d="M26.927 19.335l-7.388-7.442 0.82-4.039c0.212 0.083 0.437 0.126 0.664 0.127h0.006c1.043 0.012 1.899-0.823 1.911-1.867s-0.823-1.899-1.867-1.911c-1.043-0.012-1.899 0.823-1.911 1.867-0.003 0.223 0.034 0.445 0.109 0.655l-4.34 0.53-7.079-7.116c-0.087-0.089-0.205-0.139-0.329-0.14-0.123 0.001-0.24 0.049-0.327 0.136l-1.323 1.316c-0.182 0.182-0.182 0.478 0 0.66l0.712 0.722c-2.759 5.073-1.863 11.356 2.205 15.455 0.037 0.036 0.081 0.065 0.128 0.085-0.029 0.158-0.045 0.318-0.046 0.479v5.413h-5.6c-1.288 0.001-2.332 1.045-2.333 2.333v0.933c0 0.258 0.209 0.467 0.467 0.467h21.467c0.258 0 0.467-0.209 0.467-0.467v-0.933c-0.002-1.288-1.045-2.332-2.333-2.333h-5.6v-2.399c0.877 0.184 1.771 0.278 2.667 0.28 2.151-0.002 4.268-0.539 6.16-1.561l0.716 0.72c0.087 0.089 0.205 0.139 0.329 0.14 0.123-0.001 0.24-0.049 0.327-0.136l1.323-1.316c0.182-0.182 0.182-0.478 0-0.66zM20.37 5.454c0.365-0.364 0.956-0.362 1.32 0.004s0.362 0.956-0.004 1.32c-0.175 0.174-0.412 0.272-0.658 0.272h-0.003c-0.515-0.003-0.931-0.423-0.929-0.938 0.001-0.247 0.1-0.483 0.275-0.657h-0.002zM19.271 8.52l-0.524 2.577-1.029-1.035 1.552-1.543zM18.741 7.731l-1.68 1.67-1.3-1.307 2.98-0.364zM21.004 25.2c0.773 0 1.4 0.627 1.4 1.4v0.467h-20.533v-0.467c0-0.773 0.627-1.4 1.4-1.4h17.733zM14.47 23.333v0.933h-4.667v-0.933h4.667zM9.804 22.4v-3.547c0-1.132 1.047-2.053 2.333-2.053s2.333 0.921 2.333 2.053v3.547h-4.667zM15.404 20.916v-2.063c0-1.647-1.465-2.987-3.267-2.987-1.165-0.018-2.254 0.575-2.871 1.563-3.55-3.74-4.35-9.315-1.994-13.901l16.277 16.37c-2.513 1.279-5.395 1.639-8.145 1.018zM25.282 20.318l-18.425-18.533 0.66-0.658 6.943 6.982c0.003 0 0.005 0.006 0.008 0.008l11.475 11.543-0.662 0.658z"></path>
<path fill="#4d5ae5" style="fill: var(--color2, #4d5ae5)" d="M12.141 17.733h-0.004c-0.773-0.001-1.401 0.625-1.402 1.398s0.625 1.401 1.398 1.402h0.004c0.773 0.001 1.401-0.625 1.402-1.398s-0.625-1.401-1.398-1.402zM12.468 19.464c-0.088 0.087-0.207 0.136-0.331 0.136-0.258-0.001-0.466-0.211-0.464-0.469 0.001-0.123 0.050-0.241 0.138-0.328s0.204-0.135 0.327-0.136c0.258 0.001 0.466 0.211 0.464 0.469-0.001 0.123-0.050 0.241-0.138 0.328h0.004z"></path>
</symbol>
<symbol id="icon-astronaut" viewBox="0 0 28 28">
<path fill="#4d5ae5" style="fill: var(--color2, #4d5ae5)" d="M27.977 3.959c-0.055-0.168-0.201-0.292-0.377-0.317l-1.672-0.243-0.748-1.515c-0.157-0.319-0.68-0.319-0.837 0l-0.748 1.515-1.672 0.243c-0.176 0.026-0.322 0.148-0.377 0.317s-0.009 0.355 0.118 0.478l1.21 1.179-0.286 1.665c-0.030 0.175 0.042 0.352 0.185 0.456 0.145 0.105 0.335 0.119 0.492 0.035l1.495-0.786 1.495 0.786c0.068 0.036 0.143 0.054 0.217 0.054 0.097 0 0.193-0.030 0.274-0.089 0.144-0.105 0.216-0.281 0.185-0.456l-0.286-1.665 1.21-1.179c0.127-0.124 0.173-0.309 0.118-0.478zM25.822 5.12c-0.11 0.107-0.16 0.262-0.134 0.413l0.167 0.975-0.875-0.46c-0.068-0.036-0.143-0.054-0.217-0.054s-0.149 0.018-0.218 0.054l-0.875 0.46 0.167-0.975c0.026-0.151-0.024-0.306-0.134-0.413l-0.709-0.691 0.979-0.142c0.152-0.022 0.283-0.118 0.351-0.255l0.438-0.887 0.438 0.887c0.068 0.138 0.199 0.233 0.351 0.255l0.979 0.142-0.708 0.691z"></path>
<path fill="#4d5ae5" style="fill: var(--color2, #4d5ae5)" d="M22.867 17.957h-0.933v0.933h0.933v-0.933z"></path>
<path fill="#4d5ae5" style="fill: var(--color2, #4d5ae5)" d="M22.867 19.824h-0.933v0.933h0.933v-0.933z"></path>
<path fill="#4d5ae5" style="fill: var(--color2, #4d5ae5)" d="M23.8 18.89h-0.933v0.933h0.933v-0.933z"></path>
<path fill="#4d5ae5" style="fill: var(--color2, #4d5ae5)" d="M21.933 18.89h-0.933v0.933h0.933v-0.933z"></path>
<path fill="#4d5ae5" style="fill: var(--color2, #4d5ae5)" d="M19.6 23.090h-0.933v0.933h0.933v-0.933z"></path>
<path fill="#4d5ae5" style="fill: var(--color2, #4d5ae5)" d="M19.6 24.957h-0.933v0.933h0.933v-0.933z"></path>
<path fill="#4d5ae5" style="fill: var(--color2, #4d5ae5)" d="M20.533 24.024h-0.933v0.933h0.933v-0.933z"></path>
<path fill="#4d5ae5" style="fill: var(--color2, #4d5ae5)" d="M18.667 24.024h-0.933v0.933h0.933v-0.933z"></path>
<path fill="#4d5ae5" style="fill: var(--color2, #4d5ae5)" d="M14 21.224h-0.933v0.933h0.933v-0.933z"></path>
<path fill="#4d5ae5" style="fill: var(--color2, #4d5ae5)" d="M14 23.090h-0.933v0.933h0.933v-0.933z"></path>
<path fill="#4d5ae5" style="fill: var(--color2, #4d5ae5)" d="M14.933 22.157h-0.933v0.933h0.933v-0.933z"></path>
<path fill="#4d5ae5" style="fill: var(--color2, #4d5ae5)" d="M13.067 22.157h-0.933v0.933h0.933v-0.933z"></path>
<path fill="#4d5ae5" style="fill: var(--color2, #4d5ae5)" d="M5.133 5.357h-0.933v0.933h0.933v-0.933z"></path>
<path fill="#4d5ae5" style="fill: var(--color2, #4d5ae5)" d="M5.133 7.223h-0.933v0.933h0.933v-0.933z"></path>
<path fill="#4d5ae5" style="fill: var(--color2, #4d5ae5)" d="M6.067 6.29h-0.933v0.933h0.933v-0.933z"></path>
<path fill="#4d5ae5" style="fill: var(--color2, #4d5ae5)" d="M4.2 6.29h-0.933v0.933h0.933v-0.933z"></path>
<path fill="#2e2f42" style="fill: var(--color1, #2e2f42)" d="M21.625 12.39c-0.252-0.339-0.621-0.558-1.040-0.616-0.421-0.060-0.836 0.051-1.172 0.308l-1.096 0.84-1.66 1.24-1.188-0.473c2.119-0.951 3.599-3.070 3.599-5.53 0-3.345-2.732-6.067-6.091-6.067s-6.091 2.722-6.091 6.067c0 1.212 0.363 2.34 0.98 3.289l-2.418-0.021c-0.001 0-0.003 0-0.004 0-0.007 0-0.014 0.004-0.021 0.004-0.046 0.002-0.091 0.011-0.136 0.027-0.011 0.004-0.023 0.007-0.034 0.012-0.006 0.002-0.011 0.003-0.017 0.006l-2.829 1.397c-0 0-0.001 0-0.001 0l-1.657 0.797c-0.018 0.008-0.037 0.019-0.055 0.031-0.66 0.44-0.885 1.303-0.524 2.009 0.193 0.375 0.521 0.652 0.924 0.778 0.155 0.048 0.314 0.072 0.472 0.072 0.253 0 0.504-0.062 0.735-0.185l1.214-0.646 1.981-1.023 1.187-0.007-4.761 4.739c-0 0-0.001 0-0.001 0.001l-1.171 1.167c-0.277 0.275-0.429 0.641-0.429 1.030s0.152 0.756 0.429 1.031c0.284 0.283 0.658 0.425 1.032 0.425s0.748-0.142 1.033-0.425l1.15-1.145 1.523-1.137 0.788 0.785-1.541 1.535c-0 0.001-0.001 0.001-0.001 0.001l-1.171 1.167c-0.277 0.275-0.429 0.641-0.429 1.030s0.152 0.756 0.429 1.031c0.284 0.283 0.658 0.425 1.032 0.425s0.748-0.142 1.033-0.425l3.046-3.033c0-0.001 0-0.001 0.001-0.001l0.883-0.875-0.003-0.003c0.006-0.006 0.013-0.008 0.019-0.014l4.52-4.951 3.037 0.432c0.022 0.003 0.044 0.005 0.066 0.005 0.056 0 0.111-0.014 0.164-0.034 0.015-0.006 0.029-0.013 0.043-0.021 0.017-0.008 0.035-0.013 0.050-0.024l2.812-1.867c0.010-0.007 0.016-0.018 0.026-0.026 0.011-0.009 0.025-0.013 0.035-0.022l1.113-1.042c0.579-0.542 0.659-1.431 0.185-2.067zM1.864 15.549c-0.152 0.081-0.324 0.098-0.489 0.045-0.163-0.051-0.296-0.162-0.373-0.313-0.141-0.274-0.059-0.609 0.188-0.789l1.149-0.553 0.393 1.148-0.868 0.462zM4.924 13.95l-1.355 0.7-0.384-1.123 1.773-0.876-0.035 1.298zM18.136 8.157c0 0.804-0.192 1.562-0.524 2.24l-3.659-1.662c-0.038-0.502-0.299-0.941-0.69-1.214l1.281-4.253c2.080 0.662 3.591 2.603 3.591 4.889zM7.821 8.157c0-2.83 2.314-5.133 5.158-5.133 0.221 0 0.438 0.019 0.652 0.046l-1.253 4.16c-0.017-0-0.033-0.005-0.050-0.005-0.903 0-1.638 0.733-1.638 1.633s0.735 1.633 1.638 1.633c0.608 0 1.133-0.336 1.416-0.827l3.38 1.535c-0.94 1.266-2.445 2.091-4.145 2.091-2.844 0-5.158-2.303-5.158-5.133zM13.033 8.857c0 0.386-0.316 0.7-0.705 0.7s-0.705-0.314-0.705-0.7c0-0.386 0.316-0.7 0.705-0.7s0.705 0.314 0.705 0.7zM2.157 22.003c-0.207 0.205-0.541 0.204-0.748 0-0.099-0.099-0.154-0.23-0.154-0.37s0.055-0.27 0.154-0.369l0.842-0.839 0.745 0.742-0.839 0.835zM4.969 25.27c-0.207 0.205-0.542 0.205-0.748 0-0.099-0.099-0.154-0.231-0.154-0.37s0.055-0.27 0.154-0.369l0.842-0.839 0.745 0.742-0.84 0.836zM8.015 22.234c-0 0-0.001 0-0.001 0.001l-1.544 1.54-0.745-0.742 1.543-1.536c0 0 0 0 0-0s0.001-0 0.001-0.001c0.035-0.035 0.057-0.077 0.078-0.119 0.006-0.012 0.018-0.022 0.023-0.035 0.014-0.036 0.017-0.075 0.022-0.113 0.003-0.021 0.012-0.041 0.012-0.063 0-0.031-0.011-0.062-0.018-0.092-0.006-0.028-0.006-0.057-0.016-0.084-0.018-0.044-0.048-0.083-0.080-0.12-0.009-0.010-0.012-0.023-0.022-0.033 0 0 0 0-0 0s-0-0.001-0.001-0.002l-1.406-1.4c-0.015-0.015-0.034-0.021-0.051-0.034-0.025-0.019-0.049-0.037-0.076-0.050-0.027-0.013-0.054-0.021-0.082-0.028-0.030-0.008-0.059-0.015-0.090-0.017-0.028-0.002-0.055 0.001-0.084 0.004-0.031 0.004-0.061 0.008-0.091 0.018s-0.055 0.024-0.083 0.039c-0.017 0.010-0.037 0.013-0.053 0.025l-1.552 1.158-0.788-0.785 2.099-2.088 3.816 3.753-0.812 0.804zM13.982 16.095c-0.014-0.002-0.026 0.003-0.040 0.002-0.034-0.002-0.067 0-0.101 0.006-0.027 0.005-0.052 0.010-0.077 0.019-0.030 0.010-0.057 0.024-0.085 0.041-0.026 0.016-0.050 0.033-0.073 0.054-0.011 0.010-0.025 0.014-0.035 0.026l-4.111 4.502-3.787-3.725 2.479-2.466c0.182-0.182 0.183-0.477 0.001-0.66-0.092-0.092-0.213-0.137-0.334-0.137v-0l-1.941 0.012 0.024-1.407 2.716 0.023c1.107 1.132 2.651 1.838 4.359 1.838 0.383 0 0.756-0.040 1.12-0.107 0.035 0.028 0.070 0.057 0.113 0.074l2.108 0.84 0.133 0.664 0.156 0.775-2.627-0.374zM17.518 16.251l-0.274-1.363 1.266-0.945 0.828 1.099-1.82 1.209zM20.802 13.774l-0.733 0.687-0.815-1.082 0.728-0.558c0.136-0.105 0.307-0.147 0.475-0.125 0.169 0.024 0.318 0.112 0.42 0.249 0.189 0.255 0.157 0.611-0.075 0.829z"></path>
<path fill="#2e2f42" style="fill: var(--color1, #2e2f42)" d="M11.902 16.226l-1.875-1.867c-0.182-0.182-0.476-0.182-0.658 0l-1.875 1.867c-0.088 0.088-0.137 0.207-0.137 0.331s0.049 0.243 0.137 0.331l1.875 1.867c0.091 0.091 0.21 0.136 0.329 0.136s0.238-0.045 0.329-0.136l1.875-1.867c0.088-0.088 0.138-0.207 0.138-0.331s-0.049-0.243-0.138-0.331zM9.698 17.765l-1.213-1.208 1.213-1.208 1.214 1.208-1.214 1.208z"></path>
<path fill="#2e2f42" style="fill: var(--color1, #2e2f42)" d="M15.019 4.437l-0.225 0.906c0.062 0.015 1.52 0.395 1.52 1.88h0.933c-0-1.765-1.457-2.595-2.228-2.787z"></path>
<path fill="#2e2f42" style="fill: var(--color1, #2e2f42)" d="M17.247 8.157h-0.933v0.933h0.933v-0.933z"></path>
</symbol>
<symbol id="icon-clock" viewBox="0 0 28 28">
<path fill="#2e2f42" style="fill: var(--color1, #2e2f42)" d="M27.385 13.389c-0.001-7.396-5.998-13.39-13.394-13.389s-13.39 5.999-13.389 13.394c0.001 5.826 3.769 10.982 9.318 12.754 0.053 0.017 0.108 0.025 0.163 0.025 0.106-0 0.209-0.028 0.3-0.082 0.118-0.070 0.206-0.181 0.248-0.312l3.382-10.719c0.925-0.005 1.67-0.758 1.665-1.682s-0.758-1.67-1.682-1.665c-0.249 0.001-0.494 0.058-0.718 0.167l-4.468-4.468c-0.222-0.214-0.575-0.208-0.789 0.014-0.209 0.216-0.209 0.559 0 0.775l4.465 4.471c-0.343 0.699-0.147 1.544 0.469 2.020l-3.222 10.214c-6.368-2.346-9.629-9.41-7.283-15.778s9.41-9.629 15.778-7.283c6.368 2.346 9.629 9.41 7.283 15.778-1.146 3.111-3.501 5.627-6.529 6.977l-0.348-1.64c-0.064-0.301-0.36-0.494-0.661-0.43-0.095 0.020-0.183 0.065-0.256 0.13l-3.357 2.997c-0.23 0.205-0.251 0.558-0.046 0.788 0.067 0.075 0.152 0.13 0.248 0.161l4.286 1.368c0.293 0.094 0.608-0.067 0.702-0.361 0.030-0.093 0.035-0.191 0.015-0.287l-0.342-1.609c4.956-2.089 8.174-6.949 8.163-12.328zM13.993 12.831c0.308 0 0.558 0.25 0.558 0.558s-0.25 0.558-0.558 0.558c-0.308 0-0.558-0.25-0.558-0.558s0.25-0.558 0.558-0.558zM15.831 25.837l1.911-1.705 0.527 2.485-2.438-0.781z"></path>
<path fill="#4d5ae5" style="fill: var(--color2, #4d5ae5)" d="M13.435 2.787v1.116c0 0.308 0.25 0.558 0.558 0.558s0.558-0.25 0.558-0.558v-1.116c0-0.308-0.25-0.558-0.558-0.558s-0.558 0.25-0.558 0.558z"></path>
<path fill="#4d5ae5" style="fill: var(--color2, #4d5ae5)" d="M3.391 12.831c-0.308 0-0.558 0.25-0.558 0.558s0.25 0.558 0.558 0.558h1.116c0.308 0 0.558-0.25 0.558-0.558s-0.25-0.558-0.558-0.558h-1.116z"></path>
<path fill="#4d5ae5" style="fill: var(--color2, #4d5ae5)" d="M24.595 13.947c0.308 0 0.558-0.25 0.558-0.558s-0.25-0.558-0.558-0.558h-1.116c-0.308 0-0.558 0.25-0.558 0.558s0.25 0.558 0.558 0.558h1.116z"></path>
</symbol>
<symbol id="icon-diagram" viewBox="0 0 28 28">
<path fill="#4d5ae5" style="fill: var(--color2, #4d5ae5)" d="M13.060 13.094h0.933v4.198h-0.933v-4.198z"></path>
<path fill="#4d5ae5" style="fill: var(--color2, #4d5ae5)" d="M16.791 14.96h0.933v2.332h-0.933v-2.332z"></path>
<path fill="#4d5ae5" style="fill: var(--color2, #4d5ae5)" d="M9.328 16.359h0.933v0.933h-0.933v-0.933z"></path>
<path fill="#4d5ae5" style="fill: var(--color2, #4d5ae5)" d="M6.53 15.893h0.933v1.399h-0.933v-1.399z"></path>
<path fill="#2e2f42" style="fill: var(--color1, #2e2f42)" d="M1.399 24.755h22.388c0.773 0 1.399-0.627 1.399-1.399v-1.866c0-0.773-0.627-1.399-1.399-1.399h-0.466v-11.632l2.649-2.51c0.615 0.303 1.359 0.119 1.762-0.436s0.346-1.32-0.133-1.81-1.243-0.563-1.807-0.173c-0.564 0.39-0.764 1.13-0.475 1.752l-1.996 1.892v-1.076c0-0.773-0.627-1.399-1.399-1.399h-18.657c-0.773 0-1.399 0.627-1.399 1.399v13.993h-0.466c-0.773 0-1.399 0.627-1.399 1.399v1.866c0 0.773 0.627 1.399 1.399 1.399zM26.586 4.232c0.258 0 0.466 0.209 0.466 0.466s-0.209 0.466-0.466 0.466c-0.258 0-0.466-0.209-0.466-0.466s0.209-0.466 0.466-0.466zM2.799 6.098c0-0.258 0.209-0.466 0.466-0.466h18.657c0.258 0 0.466 0.209 0.466 0.466v1.959l-0.933 0.886v-1.912c0-0.258-0.209-0.466-0.466-0.466h-16.791c-0.258 0-0.466 0.209-0.466 0.466v11.661c0 0.258 0.209 0.466 0.466 0.466h16.791c0.258 0 0.466-0.209 0.466-0.466v-8.465l0.933-0.884v10.748h-19.59v-13.993zM6.996 12.161c-0.631-0.002-1.185 0.419-1.353 1.027s0.092 1.254 0.635 1.576c0.543 0.322 1.234 0.241 1.687-0.198l1.621 0.814c0.188 0.094 0.417 0.050 0.557-0.107l3.446-3.877 3.388 2.539c0.182 0.136 0.435 0.122 0.6-0.034l2.945-2.789v7.115h-15.858v-10.728h15.858v2.328l-3.3 3.125-3.416-2.561c-0.194-0.145-0.467-0.118-0.628 0.063l-3.494 3.931-1.306-0.653c0.010-0.056 0.015-0.112 0.018-0.169 0-0.773-0.627-1.399-1.399-1.399zM7.463 13.56c0 0.258-0.209 0.466-0.466 0.466s-0.466-0.209-0.466-0.466c0-0.258 0.209-0.466 0.466-0.466s0.466 0.209 0.466 0.466zM10.261 21.023h4.664v0.466c0 0.258-0.209 0.466-0.466 0.466h-3.731c-0.258 0-0.466-0.209-0.466-0.466v-0.466zM0.933 21.49c0-0.258 0.209-0.466 0.466-0.466h7.929v0.466c0 0.773 0.626 1.399 1.399 1.399h3.731c0.773 0 1.399-0.627 1.399-1.399v-0.466h7.929c0.258 0 0.466 0.209 0.466 0.466v1.866c0 0.258-0.209 0.466-0.466 0.466h-22.388c-0.258 0-0.466-0.209-0.466-0.466v-1.866z"></path>
</symbol>
<symbol id="icon-facebook" viewBox="0 0 28 28">
<path d="M18.663 4.649h2.556v-4.452c-0.441-0.061-1.958-0.197-3.724-0.197-3.685 0-6.21 2.318-6.21 6.579v3.921h-4.067v4.977h4.067v12.523h4.986v-12.522h3.902l0.619-4.977h-4.523v-3.429c0.001-1.439 0.389-2.423 2.393-2.423z"></path>
</symbol>
<symbol id="icon-instagram" viewBox="0 0 28 28">
<path d="M27.973 8.232c-0.066-1.488-0.306-2.511-0.651-3.397-0.356-0.941-0.902-1.783-1.619-2.483-0.7-0.711-1.548-1.264-2.478-1.614-0.891-0.345-1.909-0.585-3.397-0.651-1.499-0.071-1.975-0.088-5.776-0.088s-4.277 0.016-5.771 0.082c-1.488 0.066-2.511 0.306-3.397 0.651-0.941 0.356-1.783 0.903-2.483 1.619-0.711 0.7-1.263 1.548-1.614 2.478-0.345 0.892-0.585 1.909-0.651 3.397-0.071 1.499-0.088 1.975-0.088 5.776s0.016 4.277 0.082 5.771c0.066 1.488 0.306 2.511 0.651 3.397 0.356 0.941 0.908 1.783 1.619 2.483 0.7 0.711 1.548 1.264 2.478 1.614 0.892 0.345 1.909 0.585 3.397 0.651 1.493 0.066 1.969 0.082 5.771 0.082s4.277-0.016 5.771-0.082c1.488-0.066 2.511-0.306 3.397-0.651 1.882-0.727 3.369-2.215 4.097-4.097 0.344-0.892 0.585-1.909 0.651-3.397 0.066-1.493 0.082-1.969 0.082-5.771s-0.006-4.277-0.071-5.771zM25.451 19.664c-0.060 1.367-0.29 2.106-0.481 2.598-0.471 1.22-1.439 2.188-2.658 2.658-0.492 0.191-1.236 0.421-2.598 0.481-1.477 0.066-1.92 0.082-5.656 0.082s-4.184-0.016-5.656-0.082c-1.367-0.060-2.106-0.29-2.598-0.481-0.607-0.224-1.16-0.58-1.608-1.045-0.465-0.454-0.82-1.001-1.045-1.608-0.191-0.492-0.421-1.236-0.481-2.598-0.066-1.477-0.082-1.92-0.082-5.656s0.016-4.184 0.082-5.656c0.060-1.367 0.29-2.106 0.481-2.598 0.224-0.607 0.58-1.16 1.050-1.608 0.454-0.465 1.001-0.82 1.608-1.045 0.492-0.191 1.236-0.421 2.598-0.481 1.477-0.066 1.92-0.082 5.656-0.082 3.741 0 4.184 0.016 5.656 0.082 1.367 0.060 2.106 0.29 2.598 0.481 0.607 0.224 1.16 0.58 1.608 1.045 0.465 0.454 0.82 1.001 1.045 1.608 0.191 0.492 0.421 1.236 0.481 2.598 0.066 1.477 0.082 1.92 0.082 5.656s-0.016 4.174-0.082 5.65z"></path>
<path d="M14.052 6.81c-3.971 0-7.193 3.222-7.193 7.193s3.222 7.193 7.193 7.193c3.971 0 7.193-3.222 7.193-7.193s-3.222-7.193-7.193-7.193zM14.052 18.668c-2.576 0-4.666-2.089-4.666-4.666s2.090-4.666 4.666-4.666c2.576 0 4.666 2.089 4.666 4.666s-2.089 4.666-4.666 4.666z"></path>
<path d="M23.209 6.525c0 0.927-0.752 1.679-1.679 1.679s-1.679-0.752-1.679-1.679c0-0.928 0.752-1.679 1.679-1.679s1.679 0.752 1.679 1.679z"></path>
</symbol>
<symbol id="icon-linkedin" viewBox="0 0 28 28">
<path d="M27.993 28v-0.001h0.007v-10.269c0-5.024-1.081-8.893-6.954-8.893-2.823 0-4.718 1.549-5.492 3.018h-0.082v-2.549h-5.569v18.693h5.798v-9.256c0-2.437 0.462-4.794 3.48-4.794 2.974 0 3.018 2.781 3.018 4.95v9.101h5.793z"></path>
<path d="M0.462 9.306h5.805v18.693h-5.805v-18.693z"></path>
<path d="M3.362-0c-1.856 0-3.362 1.506-3.362 3.362s1.506 3.394 3.362 3.394c1.856 0 3.362-1.538 3.362-3.394-0.001-1.856-1.507-3.362-3.362-3.362v0z"></path>
</symbol>
<symbol id="icon-twitter" viewBox="0 0 28 28">
<path d="M28 5.318c-1.041 0.457-2.151 0.76-3.308 0.907 1.19-0.711 2.098-1.827 2.525-3.173-1.11 0.661-2.334 1.129-3.64 1.389-1.053-1.122-2.555-1.817-4.193-1.817-3.178 0-5.737 2.58-5.737 5.742 0 0.455 0.039 0.893 0.133 1.309-4.772-0.233-8.995-2.52-11.832-6.004-0.495 0.859-0.786 1.843-0.786 2.901 0 1.988 1.024 3.75 2.55 4.771-0.922-0.018-1.827-0.285-2.594-0.707 0 0.018 0 0.040 0 0.063 0 2.79 1.99 5.107 4.599 5.64-0.467 0.128-0.976 0.189-1.505 0.189-0.367 0-0.738-0.021-1.087-0.098 0.744 2.273 2.854 3.944 5.364 3.999-1.953 1.528-4.433 2.448-7.117 2.448-0.471 0-0.922-0.021-1.374-0.079 2.543 1.64 5.556 2.576 8.806 2.576 10.563 0 16.338-8.75 16.338-16.334 0-0.254-0.009-0.499-0.021-0.742 1.139-0.809 2.096-1.818 2.877-2.98z"></path>
</symbol>
<symbol id="icon-icon-send" viewBox="0 0 34 28">
<path d="M33.6 0l-33.6 15.75 10.738 3.314 16.562-12.939-12.598 14.163 0.010 0.003-0.013-0.003v7.712l6.022-5.854 7.628 2.354 5.25-24.5z"></path>
</symbol>
<symbol id="icon-close-black" viewBox="0 0 28 28">
<path d="M28 2.82l-2.82-2.82-11.18 11.18-11.18-11.18-2.82 2.82 11.18 11.18-11.18 11.18 2.82 2.82 11.18-11.18 11.18 11.18 2.82-2.82-11.18-11.18 11.18-11.18z"></path>
</symbol>
</defs>
</svg>